<svg version="1.1" xmlns="http://www.w3.org/2000/svg" xmlns:xlink="http://www.w3.org/1999/xlink">
  <symbol viewBox="0 0 18 15" id="icon-tvitter">
    <path d="M11.3 0.166728C13 -0.333272 14.4 0.366728 15 1.26673C15.7 1.06673 16.4 0.766728 17.1 0.566728C17.1 1.36673 16.6 2.06673 16.2 2.26673C16.9 2.46673 17.5 1.76673 17.5 1.76673C17.3 2.76673 16.5 3.46673 15.9 3.76673C15.7 10.3667 12.6 14.7667 5.5 14.5667C5 14.5667 5.6 14.5667 5 14.5667C4.6 14.5667 0.7 14.1667 0 12.7667C2.3 12.9667 4 12.3667 4.8 11.6667C3.8 11.3667 2 11.1667 1.7 8.76673C2.1 8.86673 2.3 8.96673 3 8.86673C1.8 8.06673 0.4 7.36673 0.5 5.16673C0.8 5.46673 1.6 5.66673 1.9 5.66673C1.2 5.46673 -0.1 2.36673 1 0.866728C2.9 2.66673 4.8 4.36673 8.4 4.56673C8.5 2.26673 9.5 0.766728 11.3 0.166728Z" />
  </symbol>

  <symbol viewBox="0 0 8.672 18.944" id="icon-facebook">
    <path d="M6.275,3.356c0.799,0,1.599,0,2.398,0c0-1.119,0-2.237,0-3.356c-0.959,0-1.92,0-2.878,0C2.656,0.181,1.54,2.387,1.948,6.114 H0v3.518h1.959c0,3.104,0,6.208,0,9.312c1.279,0,2.559,0,3.837,0c0-3.104,0-6.208,0-9.312h2.857V6.114H5.787 C5.765,5.069,5.75,3.709,6.275,3.356z" />
  </symbol>

  <symbol viewbox="0 0 19.979 14.015" id="icon-youtube">
    <path d="M17.145,0H2.835C1.275,0,0,1.275,0,2.835v8.345c0,1.56,1.275,2.835,2.835,2.835h14.31c1.56,0,2.835-1.275,2.835-2.835V2.835 C19.979,1.275,18.704,0,17.145,0z M7.036,10.392V3.623l6.769,3.384L7.036,10.392z" />
  </symbol>
</svg>
